<?xml version="1.0" encoding="UTF-8" standalone="no"?>
<svg width="650px" height="170px" viewBox="0 0 650 170" version="1.1" xmlns="http://www.w3.org/2000/svg" xmlns:xlink="http://www.w3.org/1999/xlink">
    <!-- Generator: Sketch 3.7.2 (28276) - http://www.bohemiancoding.com/sketch -->
    <title>NL logo</title>
    <desc>Created with Sketch.</desc>
    <defs></defs>
    <g id="Page-1" stroke="none" stroke-width="1" fill="none" fill-rule="evenodd">
        <g id="NL-logo">
            <g id="Logo" transform="translate(28.000000, 10.000000)">
                <g id="Boid" transform="translate(0.000000, 42.000000)">
                    <polygon id="Fill-1" fill="#7F73CB" points="19.8666435 -0.000155474453 21.8324454 34.1783117 74.2583101 13.2949832"></polygon>
                    <polygon id="Fill-2" fill="#514986" points="81.0036522 10.4076153 19.0335942 35.0415058 0 42.6074109 4.42214976 70.6011044 41.4503527 45.1292066 82.5600628 16.8499584 106.873874 0.124535036"></polygon>
                    <polygon id="Fill-3" fill="#6A60A9" points="82.5601662 16.8499066 81.0037556 10.4075635 73.7411952 13.2947241 21.847229 33.9225562 19.0336976 35.041454 41.450456 45.1291547 95.2409585 69.3349723"></polygon>
                </g>
                <g id="Netlight" transform="translate(113.148789, 0.404844)" fill="#6A60A9">
                    <path d="M291.539896,145.949118 C286.286782,143.797215 281.746298,140.744792 277.913253,136.797042 L282.062907,130.343927 C285.117405,134.009325 288.929689,136.852059 293.507543,138.859152 C298.086955,140.868841 302.96481,141.874204 308.147855,141.874204 C317.159792,141.874204 324.239896,139.124896 329.387647,133.622647 C334.530208,128.122993 337.102526,120.258633 337.102526,110.030606 L337.102526,104.109498 C329.937301,110.876107 320.991799,114.262266 310.274844,114.262266 C299.27346,114.262266 290.048201,110.630606 282.595433,103.366765 C275.142145,96.1018858 271.418616,86.5465225 271.418616,74.6996367 C271.418616,62.8480796 275.142145,53.2755882 282.595433,45.9754152 C290.048201,38.6747232 299.27346,35.0274913 310.274844,35.0274913 C320.991799,35.0274913 329.937301,38.4126125 337.102526,45.1823356 L338.593702,37.6698789 L344.875017,37.6698789 L344.875017,109.608114 C344.875017,122.304654 341.521038,132.069706 334.813599,138.911055 C329.073633,144.767284 321.736609,148.117111 312.798374,148.962093 L303.717924,148.962093 C299.501315,148.549983 295.441972,147.546176 291.539896,145.949118 L291.539896,145.949118 Z M0.0883391003,40.9309516 L0.0883391003,111.618841 L7.85979239,111.618841 L7.85979239,54.5970415 C10.6988927,50.7172837 14.3720761,47.704827 18.8798616,45.5518858 C23.3845329,43.4036159 28.3713841,42.3271453 33.8352249,42.3271453 C42.7802076,42.3271453 49.6288235,44.6363149 54.3821107,49.2536159 C59.1385121,53.8755882 61.5146367,60.205173 61.5146367,68.2444464 L61.5146367,111.618841 L69.2876471,111.618841 L69.2876471,68.6674567 C69.2876471,62.8844118 68.3108304,57.771955 66.3608304,53.3280104 C64.4066782,48.8845848 61.7819377,45.3748962 58.4814187,42.8036159 C55.1808997,40.2276644 51.5264014,38.288045 47.5153287,36.9842388 C43.5047751,35.6804325 39.2315917,35.0274913 34.687474,35.0274913 C23.970519,35.0274913 15.0291696,38.4126125 7.85979239,45.1823356 L6.36809689,37.6698789 L0.0883391003,40.9309516 Z M92.1758824,46.2951384 C84.7225952,53.5911592 80.9959516,63.1683218 80.9959516,75.0157266 C80.9959516,82.7731661 82.8966436,89.6690138 86.6938754,95.6975606 C90.4916263,101.725588 95.4577163,106.275415 101.596298,109.346003 C107.737993,112.410882 114.462561,113.945657 121.773633,113.945657 C129.222768,113.945657 136.03609,112.255173 142.21308,108.869533 C148.387474,105.484412 153.247163,100.790813 156.795779,94.7991176 L148.06827,94.5857958 C142.107197,102.343235 133.339723,106.223512 121.773633,106.223512 C112.473633,106.223512 104.846471,103.543754 98.8822837,98.1842388 C93.2767474,93.0370069 90.0120415,86.088218 89.0881661,77.3420242 L158.181073,77.3420242 C158.181073,77.1323356 158.19872,76.7596713 158.235052,76.2302595 C158.270346,75.7018858 158.287993,75.2960035 158.287993,75.0157266 C158.287993,63.0977336 154.61481,53.5065571 147.268443,46.2411592 C139.922076,38.9773183 130.78609,35.3425433 119.855294,35.3425433 C108.85391,35.3425433 99.6281315,38.9949654 92.1758824,46.2951384 L92.1758824,46.2951384 Z M88.9812457,70.7851038 C89.8345329,61.9672837 93.0815917,55.1430623 98.7224221,50.3124394 C104.366886,45.4818166 111.411176,43.0662457 119.855294,43.0662457 C128.302526,43.0662457 135.276228,45.4818166 140.774844,50.3124394 C146.277612,55.1430623 149.453564,61.9672837 150.30218,70.7851038 L88.9812457,70.7851038 Z M182.134879,110.243927 C180.433495,108.833201 179.154602,107.441678 178.301834,106.062612 C177.449585,104.688218 176.813772,102.925588 176.386609,100.773166 C175.960484,98.6238581 175.711869,96.9473875 175.64128,95.7510208 C175.570173,94.5505017 175.534879,92.8947924 175.534879,90.7771453 L175.534879,44.2304325 L167.869308,44.2304325 L168.824844,39.0515398 L175.928824,37.2748962 C175.962042,36.7470415 175.93609,31.8894291 175.928824,26.6186678 C175.921038,20.6456574 175.928824,17.737526 175.928824,17.737526 L183.30737,14.6082872 L183.30737,37.6698789 L206.621211,37.6698789 L206.621211,44.2304325 L183.30737,44.2304325 L183.30737,84.1133045 C183.30737,85.3143426 183.289204,86.9337197 183.254429,88.9797405 C183.218097,91.0257612 183.20045,92.48891 183.20045,93.3707439 C183.20045,94.2515398 183.254429,95.4172837 183.360311,96.8627855 C183.466713,98.3088062 183.662388,99.3816436 183.946298,100.088564 C184.227093,100.790813 184.618443,101.604654 185.115156,102.521263 C185.612907,103.43891 186.27,104.177491 187.086955,104.74064 C187.900277,105.306384 188.877093,105.836315 190.013772,106.329913 C194.344567,108.233201 199.985398,107.4941 206.940934,104.109498 L210.028131,109.821955 C206.976228,111.796349 203.357024,113.134931 199.168443,113.839256 C194.979862,114.546176 191.395952,114.439256 188.415675,113.523166 C185.93263,112.748253 183.840415,111.654654 182.134879,110.243927 L182.134879,110.243927 Z M230.468097,0.114342561 L230.468097,103.366765 L230.468097,111.618841 L222.802007,111.618841 L222.802007,103.366765 L222.802007,4.98752595 L222.802007,3.45586505 L230.468097,0.114342561 Z M248.961696,111.626107 L257.060657,111.626107 L257.060657,37.5951384 L248.961696,37.5951384 L248.961696,111.626107 Z M248.752007,10.771609 L256.850969,10.771609 L256.850969,0.114342561 L248.752007,0.114342561 L248.752007,10.771609 Z M311.128131,42.7496367 C322.697336,42.7496367 331.354775,46.6999827 337.102526,54.5970415 L337.102526,94.6921972 C331.354775,102.59237 322.697336,106.538564 311.128131,106.538564 C301.68955,106.538564 294.005813,103.753443 288.080554,98.1842388 C282.151142,92.6098443 279.187993,84.7844118 279.187993,74.6996367 C279.187993,64.6138235 282.151142,56.7671107 288.080554,51.1579412 C294.005813,45.5518858 301.68955,42.7496367 311.128131,42.7496367 L311.128131,42.7496367 Z M358.714983,111.618841 L366.486436,111.618841 L366.486436,54.5970415 C369.325536,50.7172837 372.99872,47.704827 377.505986,45.5518858 C382.011696,43.4036159 386.999585,42.3271453 392.461869,42.3271453 C401.407889,42.3271453 408.255467,44.6363149 413.008754,49.2536159 C417.764637,53.8755882 420.142837,60.205173 420.142837,68.2444464 L420.142837,111.618841 L427.91481,111.618841 L427.91481,68.6674567 C427.91481,62.8844118 426.937474,57.771955 424.987993,53.3280104 C423.03436,48.8845848 420.407543,45.3748962 417.108062,42.8036159 C413.808062,40.2276644 410.152526,38.288045 406.142491,36.9842388 C402.134533,35.6804325 397.857197,35.0274913 393.314637,35.0274913 C382.597682,35.0274913 373.655813,38.4126125 366.486436,45.1823356 L366.486436,3.55448097 L358.714983,0.114342561 L358.714983,111.618841 Z M451.761176,110.243927 C450.059273,108.833201 448.7809,107.441678 447.928651,106.062612 C447.075882,104.688218 446.440069,102.925588 446.013945,100.773166 C445.587301,98.6238581 445.338166,96.9473875 445.268097,95.7510208 C445.19699,94.5505017 445.160138,92.8947924 445.160138,90.7771453 L445.160138,44.2304325 L437.495087,44.2304325 L437.495087,37.6698789 L445.160138,37.6698789 C445.232803,36.5430623 445.268097,28.8562111 445.268097,14.6082872 L452.987128,17.7505017 L452.933668,37.6698789 L476.246471,37.6698789 L476.246471,44.2304325 L452.933668,44.2304325 L452.933668,84.1133045 C452.933668,85.3143426 452.915502,86.9337197 452.880208,88.9797405 C452.845433,91.0257612 452.826228,92.48891 452.826228,93.3707439 C452.826228,94.2515398 452.880208,95.4172837 452.987128,96.8627855 C453.093529,98.3088062 453.288685,99.3816436 453.573114,100.088564 C453.853391,100.790813 454.24526,101.604654 454.742491,102.521263 C455.239723,103.43891 455.896298,104.177491 456.712734,104.74064 C457.526055,105.306384 458.50391,105.836315 459.641107,106.329913 C463.970346,108.233201 469.612215,107.4941 476.567751,104.109498 L479.654429,109.821955 C476.603564,111.796349 472.982284,113.134931 468.79474,113.839256 C464.606159,114.546176 461.022768,114.439256 458.041453,113.523166 C455.558408,112.748253 453.466713,111.654654 451.761176,110.243927 L451.761176,110.243927 Z" id="Fill-1"></path>
                </g>
            </g>
        </g>
    </g>
</svg>